<svg width="17" height="17" viewBox="0 0 17 17" fill="none" xmlns="http://www.w3.org/2000/svg">
<path fill-rule="evenodd" clip-rule="evenodd" d="M17 17H0V0H17V17ZM4.8623 14.8525L6.78613 15.6172L7.55078 13.6934L5.62598 12.9287L4.8623 14.8525ZM7.55078 13.6934L9.47461 14.457L10.2393 12.5332L8.31445 11.7686L7.55078 13.6934ZM10.2393 12.5332L12.1631 13.2979L12.9277 11.374L11.0029 10.6094L10.2393 12.5332ZM3.70215 12.1641L5.62598 12.9287L6.39062 11.0049L4.4668 10.2402L3.70215 12.1641ZM12.9277 11.374L14.8525 12.1387L15.6172 10.2139L13.6924 9.44922L12.9277 11.374ZM6.39062 11.0049L8.31445 11.7686L9.0791 9.84473L7.15527 9.08008L6.39062 11.0049ZM9.0791 9.84473L11.0029 10.6094L11.7676 8.68555L9.84375 7.9209L9.0791 9.84473ZM6.75977 4.4668L4.83691 3.70312L4.07227 5.62793L5.99512 6.3916L5.23047 8.31543L3.30664 7.55078L2.54199 9.47559L4.4668 10.2402L5.23145 8.31641L7.15527 9.08008L7.91992 7.15625L5.99512 6.3916L6.75977 4.4668L8.68457 5.23145L9.44922 3.30762L7.52441 2.54297L6.75977 4.4668ZM11.7676 8.68555L13.6914 9.4502L14.457 7.52539L12.5322 6.76074L11.7676 8.68555ZM7.91992 7.15625L9.84375 7.9209L10.6084 5.99609L8.68457 5.23145L7.91992 7.15625ZM1.38281 6.78711L3.30664 7.55078L4.07129 5.62695L2.14648 4.8623L1.38281 6.78711ZM10.6084 5.99609L12.5322 6.76074L13.2969 4.83691L11.373 4.07227L10.6084 5.99609ZM9.44922 3.30762L11.373 4.07227L12.1377 2.14844L10.2139 1.38379L9.44922 3.30762Z" fill="#232323"/>
</svg>
